<?xml version="1.0" standalone="no"?>
<!DOCTYPE svg PUBLIC "-//W3C//DTD SVG 20010904//EN"
 "http://www.w3.org/TR/2001/REC-SVG-20010904/DTD/svg10.dtd">
<svg version="1.0" xmlns="http://www.w3.org/2000/svg"
 width="206.000000pt" height="206.000000pt" viewBox="0 0 206.000000 206.000000"
 preserveAspectRatio="xMidYMid meet">
<metadata>
Created by potrace 1.14, written by Peter Selinger 2001-2017
</metadata>
<g transform="translate(0.000000,206.000000) scale(0.100000,-0.100000)"
fill="#000000" stroke="none">
<path d="M976 1943 c-2 -2 -45 -5 -97 -8 -73 -3 -99 -9 -121 -25 -15 -11 -30
-20 -33 -20 -25 0 -180 -88 -243 -138 -23 -18 -49 -35 -57 -36 -22 -3 -65 -47
-65 -67 0 -9 -7 -22 -15 -29 -37 -31 -155 -239 -155 -275 0 -8 -6 -18 -14 -21
-22 -8 -27 -30 -33 -134 -7 -111 -6 -169 0 -303 5 -83 9 -104 30 -135 14 -20
28 -47 32 -60 10 -35 72 -141 117 -200 22 -30 41 -60 42 -68 3 -19 47 -64 63
-64 7 0 39 -20 70 -44 61 -47 207 -126 233 -126 9 0 23 -9 33 -20 9 -11 22
-20 29 -21 213 -13 265 -13 404 -5 76 4 98 9 129 30 21 15 43 26 50 26 26 0
186 95 243 144 12 11 30 21 39 22 20 3 36 19 60 60 10 18 40 64 67 104 27 40
63 104 80 144 18 39 39 83 49 97 15 23 19 44 16 89 0 8 2 35 6 60 11 83 5 276
-10 300 -2 3 0 12 5 20 8 14 -12 78 -28 90 -4 3 -21 36 -36 73 -28 67 -98 181
-137 223 -10 11 -19 28 -19 36 0 16 -45 58 -62 58 -5 0 -32 18 -61 39 -66 50
-164 105 -214 121 -21 7 -48 21 -59 32 -17 15 -42 20 -115 24 -133 8 -219 11
-223 7z"/>
</g>
</svg>
